# xmcd CD database file
#
# Track frame offsets:
#	150
#	16667
#	31792
#	58925
#	76892
#	94402
#	127522
#	140835
#	161835
#	180005
#	202225
#
# Disc length: 2856 seconds
#
# Revision: 1
# Processed by: cddbd v1.5.1PL0 Copyright (c) Steve Scherf et al.
# Submitted via: CDex 1.50
#
DISCID=880b260b
DTITLE=Uffe Steen - String Time
DYEAR=1997
DGENRE=Jazz
TTITLE0=Inner Movie Theme
TTITLE1=Run Bunny
TTITLE2=My One And Only Love
TTITLE3=Cascadura
TTITLE4=Jens Vejmand
TTITLE5=String Time
TTITLE6=Blue Rockin' Chair
TTITLE7=In Your Own Sweet Way
TTITLE8=Bailey In Coffee
TTITLE9=Long Time No C
TTITLE10=Waterloo Sunset
EXTD=YEAR: 1997
EXTT0=
EXTT1=
EXTT2=
EXTT3=
EXTT4=
EXTT5=
EXTT6=
EXTT7=
EXTT8=
EXTT9=
EXTT10=
PLAYORDER=
